  0
SECTION
  2
HEADER
  9
$ACADVER
  1
AC1024
  9
$ACADMAINTVER
 70
6
  9
$DWGCODEPAGE
  3
ANSI_1252
  9
$LASTSAVEDBY
  1
ezdxf
  9
$INSBASE
 10
0.0
 20
0.0
 30
0.0
  9
$EXTMIN
 10
1e+20
 20
1e+20
 30
1e+20
  9
$EXTMAX
 10
-1e+20
 20
-1e+20
 30
-1e+20
  9
$LIMMIN
 10
0.0
 20
0.0
  9
$LIMMAX
 10
420.0
 20
297.0
  9
$ORTHOMODE
 70
0
  9
$REGENMODE
 70
1
  9
$FILLMODE
 70
1
  9
$QTEXTMODE
 70
0
  9
$MIRRTEXT
 70
1
  9
$LTSCALE
 40
1.0
  9
$ATTMODE
 70
1
  9
$TEXTSIZE
 40
2.5
  9
$TRACEWID
 40
1.0
  9
$TEXTSTYLE
  7
Standard
  9
$CLAYER
  8
0
  9
$CELTYPE
  6
ByLayer
  9
$CECOLOR
 62
256
  9
$CELTSCALE
 40
1.0
  9
$DISPSILH
 70
0
  9
$DIMSCALE
 40
1.0
  9
$DIMASZ
 40
2.5
  9
$DIMEXO
 40
0.625
  9
$DIMDLI
 40
3.75
  9
$DIMRND
 40
0.0
  9
$DIMDLE
 40
0.0
  9
$DIMEXE
 40
1.25
  9
$DIMTP
 40
0.0
  9
$DIMTM
 40
0.0
  9
$DIMTXT
 40
2.5
  9
$DIMCEN
 40
2.5
  9
$DIMTSZ
 40
0.0
  9
$DIMTOL
 70
0
  9
$DIMLIM
 70
0
  9
$DIMTIH
 70
0
  9
$DIMTOH
 70
0
  9
$DIMSE1
 70
0
  9
$DIMSE2
 70
0
  9
$DIMTAD
 70
1
  9
$DIMZIN
 70
8
  9
$DIMBLK
  1

  9
$DIMASO
 70
1
  9
$DIMSHO
 70
1
  9
$DIMPOST
  1

  9
$DIMAPOST
  1

  9
$DIMALT
 70
0
  9
$DIMALTD
 70
3
  9
$DIMALTF
 40
0.03937007874
  9
$DIMLFAC
 40
1.0
  9
$DIMTOFL
 70
1
  9
$DIMTVP
 40
0.0
  9
$DIMTIX
 70
0
  9
$DIMSOXD
 70
0
  9
$DIMSAH
 70
0
  9
$DIMBLK1
  1

  9
$DIMBLK2
  1

  9
$DIMSTYLE
  2
ISO-25
  9
$DIMCLRD
 70
0
  9
$DIMCLRE
 70
0
  9
$DIMCLRT
 70
0
  9
$DIMTFAC
 40
1.0
  9
$DIMGAP
 40
0.625
  9
$DIMJUST
 70
0
  9
$DIMSD1
 70
0
  9
$DIMSD2
 70
0
  9
$DIMTOLJ
 70
0
  9
$DIMTZIN
 70
8
  9
$DIMALTZ
 70
0
  9
$DIMALTTZ
 70
0
  9
$DIMUPT
 70
0
  9
$DIMDEC
 70
2
  9
$DIMTDEC
 70
2
  9
$DIMALTU
 70
2
  9
$DIMALTTD
 70
3
  9
$DIMTXSTY
  7
Standard
  9
$DIMAUNIT
 70
0
  9
$DIMADEC
 70
0
  9
$DIMALTRND
 40
0.0
  9
$DIMAZIN
 70
0
  9
$DIMDSEP
 70
44
  9
$DIMATFIT
 70
3
  9
$DIMFRAC
 70
0
  9
$DIMLDRBLK
  1

  9
$DIMLUNIT
 70
2
  9
$DIMLWD
 70
-2
  9
$DIMLWE
 70
-2
  9
$DIMTMOVE
 70
0
  9
$DIMFXL
 40
1.0
  9
$DIMFXLON
 70
0
  9
$DIMJOGANG
 40
0.785398163397
  9
$DIMTFILL
 70
0
  9
$DIMTFILLCLR
 70
0
  9
$DIMARCSYM
 70
0
  9
$DIMLTYPE
  6

  9
$DIMLTEX1
  6

  9
$DIMLTEX2
  6

  9
$DIMTXTDIRECTION
 70
0
  9
$LUNITS
 70
2
  9
$LUPREC
 70
4
  9
$SKETCHINC
 40
1.0
  9
$FILLETRAD
 40
10.0
  9
$AUNITS
 70
0
  9
$AUPREC
 70
2
  9
$MENU
  1
.
  9
$ELEVATION
 40
0.0
  9
$PELEVATION
 40
0.0
  9
$THICKNESS
 40
0.0
  9
$LIMCHECK
 70
0
  9
$CHAMFERA
 40
0.0
  9
$CHAMFERB
 40
0.0
  9
$CHAMFERC
 40
0.0
  9
$CHAMFERD
 40
0.0
  9
$SKPOLY
 70
0
  9
$TDCREATE
 40
2461289.755138889
  9
$TDUCREATE
 40
2458532.153996898
  9
$TDUPDATE
 40
2461289.755138889
  9
$TDUUPDATE
 40
2458532.1544311
  9
$TDINDWG
 40
0.0
  9
$TDUSRTIMER
 40
0.0
  9
$USRTIMER
 70
1
  9
$ANGBASE
 50
0.0
  9
$ANGDIR
 70
0
  9
$PDMODE
 70
0
  9
$PDSIZE
 40
0.0
  9
$PLINEWID
 40
0.0
  9
$SPLFRAME
 70
0
  9
$SPLINETYPE
 70
6
  9
$SPLINESEGS
 70
8
  9
$HANDSEED
  5
9B
  9
$SURFTAB1
 70
6
  9
$SURFTAB2
 70
6
  9
$SURFTYPE
 70
6
  9
$SURFU
 70
6
  9
$SURFV
 70
6
  9
$UCSBASE
  2

  9
$UCSNAME
  2

  9
$UCSORG
 10
0.0
 20
0.0
 30
0.0
  9
$UCSXDIR
 10
1.0
 20
0.0
 30
0.0
  9
$UCSYDIR
 10
0.0
 20
1.0
 30
0.0
  9
$UCSORTHOREF
  2

  9
$UCSORTHOVIEW
 70
0
  9
$UCSORGTOP
 10
0.0
 20
0.0
 30
0.0
  9
$UCSORGBOTTOM
 10
0.0
 20
0.0
 30
0.0
  9
$UCSORGLEFT
 10
0.0
 20
0.0
 30
0.0
  9
$UCSORGRIGHT
 10
0.0
 20
0.0
 30
0.0
  9
$UCSORGFRONT
 10
0.0
 20
0.0
 30
0.0
  9
$UCSORGBACK
 10
0.0
 20
0.0
 30
0.0
  9
$PUCSBASE
  2

  9
$PUCSNAME
  2

  9
$PUCSORG
 10
0.0
 20
0.0
 30
0.0
  9
$PUCSXDIR
 10
1.0
 20
0.0
 30
0.0
  9
$PUCSYDIR
 10
0.0
 20
1.0
 30
0.0
  9
$PUCSORTHOREF
  2

  9
$PUCSORTHOVIEW
 70
0
  9
$PUCSORGTOP
 10
0.0
 20
0.0
 30
0.0
  9
$PUCSORGBOTTOM
 10
0.0
 20
0.0
 30
0.0
  9
$PUCSORGLEFT
 10
0.0
 20
0.0
 30
0.0
  9
$PUCSORGRIGHT
 10
0.0
 20
0.0
 30
0.0
  9
$PUCSORGFRONT
 10
0.0
 20
0.0
 30
0.0
  9
$PUCSORGBACK
 10
0.0
 20
0.0
 30
0.0
  9
$USERI1
 70
0
  9
$USERI2
 70
0
  9
$USERI3
 70
0
  9
$USERI4
 70
0
  9
$USERI5
 70
0
  9
$USERR1
 40
0.0
  9
$USERR2
 40
0.0
  9
$USERR3
 40
0.0
  9
$USERR4
 40
0.0
  9
$USERR5
 40
0.0
  9
$WORLDVIEW
 70
1
  9
$SHADEDGE
 70
3
  9
$SHADEDIF
 70
70
  9
$TILEMODE
 70
1
  9
$MAXACTVP
 70
64
  9
$PINSBASE
 10
0.0
 20
0.0
 30
0.0
  9
$PLIMCHECK
 70
0
  9
$PEXTMIN
 10
1e+20
 20
1e+20
 30
1e+20
  9
$PEXTMAX
 10
-1e+20
 20
-1e+20
 30
-1e+20
  9
$PLIMMIN
 10
0.0
 20
0.0
  9
$PLIMMAX
 10
420.0
 20
297.0
  9
$UNITMODE
 70
0
  9
$VISRETAIN
 70
1
  9
$PLINEGEN
 70
0
  9
$PSLTSCALE
 70
1
  9
$TREEDEPTH
 70
3020
  9
$CMLSTYLE
  2
Standard
  9
$CMLJUST
 70
0
  9
$CMLSCALE
 40
20.0
  9
$PROXYGRAPHICS
 70
1
  9
$MEASUREMENT
 70
1
  9
$CELWEIGHT
370
-1
  9
$ENDCAPS
280
0
  9
$JOINSTYLE
280
0
  9
$LWDISPLAY
290
0
  9
$INSUNITS
 70
6
  9
$HYPERLINKBASE
  1

  9
$STYLESHEET
  1

  9
$XEDIT
290
1
  9
$CEPSNTYPE
380
0
  9
$PSTYLEMODE
290
1
  9
$FINGERPRINTGUID
  2
{643705AD-E4B5-4B06-B660-AEEBFE4536AD}
  9
$VERSIONGUID
  2
{B6ECE378-D78E-4F49-9DB9-F57FD3056863}
  9
$EXTNAMES
290
1
  9
$PSVPSCALE
 40
0.0
  9
$OLESTARTUP
290
0
  9
$SORTENTS
280
127
  9
$INDEXCTL
280
0
  9
$HIDETEXT
280
1
  9
$XCLIPFRAME
280
1
  9
$HALOGAP
280
0
  9
$OBSCOLOR
 70
257
  9
$OBSLTYPE
280
0
  9
$INTERSECTIONDISPLAY
280
0
  9
$INTERSECTIONCOLOR
 70
257
  9
$DIMASSOC
280
2
  9
$PROJECTNAME
  1

  9
$CAMERADISPLAY
290
0
  9
$LENSLENGTH
 40
50.0
  9
$CAMERAHEIGHT
 40
0.0
  9
$STEPSPERSEC
 40
24.0
  9
$STEPSIZE
 40
100.0
  9
$3DDWFPREC
 40
2.0
  9
$PSOLWIDTH
 40
0.005
  9
$PSOLHEIGHT
 40
0.08
  9
$LOFTANG1
 40
1.570796326795
  9
$LOFTANG2
 40
1.570796326795
  9
$LOFTMAG1
 40
0.0
  9
$LOFTMAG2
 40
0.0
  9
$LOFTPARAM
 70
7
  9
$LOFTNORMALS
280
1
  9
$LATITUDE
 40
37.795
  9
$LONGITUDE
 40
-122.394
  9
$NORTHDIRECTION
 40
0.0
  9
$TIMEZONE
 70
-8000
  9
$LIGHTGLYPHDISPLAY
280
1
  9
$TILEMODELIGHTSYNCH
280
1
  9
$CMATERIAL
347
20
  9
$SOLIDHIST
280
0
  9
$SHOWHIST
280
1
  9
$DWFFRAME
280
2
  9
$DGNFRAME
280
2
  9
$REALWORLDSCALE
290
1
  9
$INTERFERECOLOR
 62
256
  9
$CSHADOW
280
0
  9
$SHADOWPLANELOCATION
 40
0.0
  0
ENDSEC
  0
SECTION
  2
CLASSES
  0
CLASS
  1
ACDBDICTIONARYWDFLT
  2
AcDbDictionaryWithDefault
  3
ObjectDBX Classes
 90
0
 91
0
280
0
281
0
  0
CLASS
  1
SUN
  2
AcDbSun
  3
SCENEOE
 90
1153
 91
0
280
0
281
0
  0
CLASS
  1
VISUALSTYLE
  2
AcDbVisualStyle
  3
ObjectDBX Classes
 90
4095
 91
0
280
0
281
0
  0
CLASS
  1
MATERIAL
  2
AcDbMaterial
  3
ObjectDBX Classes
 90
1153
 91
0
280
0
281
0
  0
CLASS
  1
SCALE
  2
AcDbScale
  3
ObjectDBX Classes
 90
1153
 91
0
280
0
281
0
  0
CLASS
  1
TABLESTYLE
  2
AcDbTableStyle
  3
ObjectDBX Classes
 90
4095
 91
0
280
0
281
0
  0
CLASS
  1
MLEADERSTYLE
  2
AcDbMLeaderStyle
  3
ACDB_MLEADERSTYLE_CLASS
 90
4095
 91
0
280
0
281
0
  0
CLASS
  1
DICTIONARYVAR
  2
AcDbDictionaryVar
  3
ObjectDBX Classes
 90
0
 91
0
280
0
281
0
  0
CLASS
  1
CELLSTYLEMAP
  2
AcDbCellStyleMap
  3
ObjectDBX Classes
 90
1152
 91
0
280
0
281
0
  0
CLASS
  1
MENTALRAYRENDERSETTINGS
  2
AcDbMentalRayRenderSettings
  3
SCENEOE
 90
1024
 91
0
280
0
281
0
  0
CLASS
  1
ACDBDETAILVIEWSTYLE
  2
AcDbDetailViewStyle
  3
ObjectDBX Classes
 90
1025
 91
0
280
0
281
0
  0
CLASS
  1
ACDBSECTIONVIEWSTYLE
  2
AcDbSectionViewStyle
  3
ObjectDBX Classes
 90
1025
 91
0
280
0
281
0
  0
CLASS
  1
RASTERVARIABLES
  2
AcDbRasterVariables
  3
ISM
 90
0
 91
0
280
0
281
0
  0
CLASS
  1
ACDBPLACEHOLDER
  2
AcDbPlaceHolder
  3
ObjectDBX Classes
 90
0
 91
0
280
0
281
0
  0
CLASS
  1
LAYOUT
  2
AcDbLayout
  3
ObjectDBX Classes
 90
0
 91
0
280
0
281
0
  0
ENDSEC
  0
SECTION
  2
TABLES
  0
TABLE
  2
VPORT
  5
8
330
0
100
AcDbSymbolTable
 70
1
  0
VPORT
  5
23
330
8
100
AcDbSymbolTableRecord
100
AcDbViewportTableRecord
  2
*Active
 70
0
 10
0.0
 20
0.0
 11
1.0
 21
1.0
 12
0.0
 22
0.0
 13
0.0
 23
0.0
 14
0.5
 24
0.5
 15
0.5
 25
0.5
 16
0.0
 26
0.0
 36
1.0
 17
0.0
 27
0.0
 37
0.0
 40
1000.0
 41
1.34
 42
50.0
 43
0.0
 44
0.0
 50
0.0
 51
0.0
 71
0
 72
1000
 73
1
 74
3
 75
0
 76
0
 77
0
 78
0
281
0
 65
0
146
0.0
  0
ENDTAB
  0
TABLE
  2
LTYPE
  5
2
330
0
100
AcDbSymbolTable
 70
3
  0
LTYPE
  5
24
330
2
100
AcDbSymbolTableRecord
100
AcDbLinetypeTableRecord
  2
ByBlock
 70
0
  3

 72
65
 73
0
 40
0.0
  0
LTYPE
  5
25
330
2
100
AcDbSymbolTableRecord
100
AcDbLinetypeTableRecord
  2
ByLayer
 70
0
  3

 72
65
 73
0
 40
0.0
  0
LTYPE
  5
26
330
2
100
AcDbSymbolTableRecord
100
AcDbLinetypeTableRecord
  2
Continuous
 70
0
  3

 72
65
 73
0
 40
0.0
  0
ENDTAB
  0
TABLE
  2
LAYER
  5
1
330
0
100
AcDbSymbolTable
 70
9
  0
LAYER
  5
27
330
1
100
AcDbSymbolTableRecord
100
AcDbLayerTableRecord
  2
0
 70
0
 62
7
  6
Continuous
370
-3
390
13
347
21
  0
LAYER
  5
28
330
1
100
AcDbSymbolTableRecord
100
AcDbLayerTableRecord
  2
Defpoints
 70
0
 62
7
  6
Continuous
290
0
370
-3
390
13
347
21
  0
LAYER
  5
2F
330
1
100
AcDbSymbolTableRecord
100
AcDbLayerTableRecord
  2
CONSTRUCTII
 70
0
 62
1
  6
Continuous
370
-3
390
13
347
21
  0
LAYER
  5
30
330
1
100
AcDbSymbolTableRecord
100
AcDbLayerTableRecord
  2
ANEXE
 70
0
 62
2
  6
Continuous
370
-3
390
13
347
21
  0
LAYER
  5
31
330
1
100
AcDbSymbolTableRecord
100
AcDbLayerTableRecord
  2
ARBORI
 70
0
 62
3
  6
Continuous
370
-3
390
13
347
21
  0
LAYER
  5
32
330
1
100
AcDbSymbolTableRecord
100
AcDbLayerTableRecord
  2
STALPI
 70
0
 62
4
  6
Continuous
370
-3
390
13
347
21
  0
LAYER
  5
33
330
1
100
AcDbSymbolTableRecord
100
AcDbLayerTableRecord
  2
PARCELE
 70
0
 62
3
  6
Continuous
370
-3
390
13
347
21
  0
LAYER
  5
34
330
1
100
AcDbSymbolTableRecord
100
AcDbLayerTableRecord
  2
GARDURI
 70
0
 62
4
  6
Continuous
370
-3
390
13
347
21
  0
LAYER
  5
35
330
1
100
AcDbSymbolTableRecord
100
AcDbLayerTableRecord
  2
TEXTE
 70
0
 62
7
  6
Continuous
370
-3
390
13
347
21
  0
ENDTAB
  0
TABLE
  2
STYLE
  5
5
330
0
100
AcDbSymbolTable
 70
1
  0
STYLE
  5
29
330
5
100
AcDbSymbolTableRecord
100
AcDbTextStyleTableRecord
  2
Standard
 70
0
 40
0.0
 41
1.0
 50
0.0
 71
0
 42
2.5
  3
txt
  4

  0
ENDTAB
  0
TABLE
  2
VIEW
  5
7
330
0
100
AcDbSymbolTable
 70
0
  0
ENDTAB
  0
TABLE
  2
UCS
  5
6
330
0
100
AcDbSymbolTable
 70
0
  0
ENDTAB
  0
TABLE
  2
APPID
  5
3
330
0
100
AcDbSymbolTable
 70
3
  0
APPID
  5
2A
330
3
100
AcDbSymbolTableRecord
100
AcDbRegAppTableRecord
  2
ACAD
 70
0
  0
APPID
  5
98
330
3
100
AcDbSymbolTableRecord
100
AcDbRegAppTableRecord
  2
HATCHBACKGROUNDCOLOR
 70
0
  0
APPID
  5
99
330
3
100
AcDbSymbolTableRecord
100
AcDbRegAppTableRecord
  2
EZDXF
 70
0
  0
ENDTAB
  0
TABLE
  2
DIMSTYLE
  5
4
330
0
100
AcDbSymbolTable
 70
1
100
AcDbDimStyleTable
  0
DIMSTYLE
105
2B
330
4
100
AcDbSymbolTableRecord
100
AcDbDimStyleTableRecord
  2
Standard
 70
0
 40
1.0
 41
2.5
 42
0.625
 43
3.75
 44
1.25
 45
0.0
 46
0.0
 47
0.0
 48
0.0
 49
2.5
140
2.5
141
2.5
142
0.0
143
0.03937007874
144
1.0
145
0.0
146
1.0
147
0.625
148
0.0
 69
0
 70
0
 71
0
 72
0
 73
0
 74
0
 75
0
 76
0
 77
1
 78
8
 79
3
170
0
171
3
172
1
173
0
174
0
175
0
176
0
177
0
178
0
179
2
271
2
272
2
273
2
274
3
275
0
276
0
277
2
278
44
279
0
280
0
281
0
282
0
283
0
284
8
285
0
286
0
288
0
289
3
290
0
371
-2
372
-2
  0
ENDTAB
  0
TABLE
  2
BLOCK_RECORD
  5
9
330
0
100
AcDbSymbolTable
 70
2
  0
BLOCK_RECORD
  5
17
330
9
100
AcDbSymbolTableRecord
100
AcDbBlockTableRecord
  2
*Model_Space
340
1A
 70
0
280
1
281
0
  0
BLOCK_RECORD
  5
1B
330
9
100
AcDbSymbolTableRecord
100
AcDbBlockTableRecord
  2
*Paper_Space
340
1E
 70
0
280
1
281
0
  0
ENDTAB
  0
ENDSEC
  0
SECTION
  2
BLOCKS
  0
BLOCK
  5
18
330
17
100
AcDbEntity
  8
0
100
AcDbBlockBegin
  2
*Model_Space
 70
0
 10
0.0
 20
0.0
 30
0.0
  3
*Model_Space
  1

  0
ENDBLK
  5
19
330
17
100
AcDbEntity
  8
0
100
AcDbBlockEnd
  0
BLOCK
  5
1C
330
1B
100
AcDbEntity
  8
0
100
AcDbBlockBegin
  2
*Paper_Space
 70
0
 10
0.0
 20
0.0
 30
0.0
  3
*Paper_Space
  1

  0
ENDBLK
  5
1D
330
1B
100
AcDbEntity
  8
0
100
AcDbBlockEnd
  0
ENDSEC
  0
SECTION
  2
ENTITIES
  0
LWPOLYLINE
  5
36
330
17
100
AcDbEntity
  8
CONSTRUCTII
 62
1
100
AcDbPolyline
 90
5
 70
1
 10
390529.997
 20
585873.252
 10
390553.697
 20
585873.252
 10
390553.697
 20
585844.152
 10
390529.997
 20
585844.152
 10
390529.997
 20
585873.252
  0
TEXT
  5
37
330
17
100
AcDbEntity
  8
TEXTE
 62
7
100
AcDbText
 10
390541.847
 20
585858.702
 30
0.0
 40
1.5
  1
C1: 689.7mp
 72
1
 11
390541.847
 21
585858.702
 31
0.0
100
AcDbText
 73
2
  0
LWPOLYLINE
  5
38
330
17
100
AcDbEntity
  8
CONSTRUCTII
 62
1
100
AcDbPolyline
 90
5
 70
1
 10
390642.347
 20
585831.102
 10
390642.347
 20
585855.252
 10
390654.197
 20
585855.252
 10
390654.197
 20
585831.102
 10
390642.347
 20
585831.102
  0
TEXT
  5
39
330
17
100
AcDbEntity
  8
TEXTE
 62
7
100
AcDbText
 10
390648.272
 20
585843.177
 30
0.0
 40
1.5
  1
C2: 286.2mp
 72
1
 11
390648.272
 21
585843.177
 31
0.0
100
AcDbText
 73
2
  0
LWPOLYLINE
  5
3A
330
17
100
AcDbEntity
  8
CONSTRUCTII
 62
1
100
AcDbPolyline
 90
5
 70
1
 10
390633.497
 20
585833.052
 10
390633.497
 20
585854.202
 10
390647.147
 20
585854.202
 10
390647.147
 20
585833.052
 10
390633.497
 20
585833.052
  0
TEXT
  5
3B
330
17
100
AcDbEntity
  8
TEXTE
 62
7
100
AcDbText
 10
390640.322
 20
585843.627
 30
0.0
 40
1.5
  1
C3: 288.7mp
 72
1
 11
390640.322
 21
585843.627
 31
0.0
100
AcDbText
 73
2
  0
LWPOLYLINE
  5
3C
330
17
100
AcDbEntity
  8
CONSTRUCTII
 62
1
100
AcDbPolyline
 90
5
 70
1
 10
390717.047
 20
585822.102
 10
390701.897
 20
585822.102
 10
390701.897
 20
585844.302
 10
390717.047
 20
585844.302
 10
390717.047
 20
585822.102
  0
TEXT
  5
3D
330
17
100
AcDbEntity
  8
TEXTE
 62
7
100
AcDbText
 10
390709.472
 20
585833.202
 30
0.0
 40
1.5
  1
C4: 336.3mp
 72
1
 11
390709.472
 21
585833.202
 31
0.0
100
AcDbText
 73
2
  0
LWPOLYLINE
  5
3E
330
17
100
AcDbEntity
  8
CONSTRUCTII
 62
1
100
AcDbPolyline
 90
5
 70
1
 10
390764.897
 20
585810.102
 10
390764.897
 20
585830.202
 10
390773.897
 20
585830.202
 10
390773.897
 20
585810.102
 10
390764.897
 20
585810.102
  0
TEXT
  5
3F
330
17
100
AcDbEntity
  8
TEXTE
 62
7
100
AcDbText
 10
390769.397
 20
585820.152
 30
0.0
 40
1.5
  1
C5: 180.9mp
 72
1
 11
390769.397
 21
585820.152
 31
0.0
100
AcDbText
 73
2
  0
LWPOLYLINE
  5
40
330
17
100
AcDbEntity
  8
CONSTRUCTII
 62
1
100
AcDbPolyline
 90
5
 70
1
 10
390865.397
 20
585821.202
 10
390877.997
 20
585821.202
 10
390877.997
 20
585792.102
 10
390865.397
 20
585792.102
 10
390865.397
 20
585821.202
  0
TEXT
  5
41
330
17
100
AcDbEntity
  8
TEXTE
 62
7
100
AcDbText
 10
390871.697
 20
585806.652
 30
0.0
 40
1.5
  1
C6: 366.7mp
 72
1
 11
390871.697
 21
585806.652
 31
0.0
100
AcDbText
 73
2
  0
LWPOLYLINE
  5
42
330
17
100
AcDbEntity
  8
CONSTRUCTII
 62
1
100
AcDbPolyline
 90
5
 70
1
 10
390653.897
 20
585764.802
 10
390653.897
 20
585785.052
 10
390668.147
 20
585785.052
 10
390668.147
 20
585764.802
 10
390653.897
 20
585764.802
  0
TEXT
  5
43
330
17
100
AcDbEntity
  8
TEXTE
 62
7
100
AcDbText
 10
390661.022
 20
585774.927
 30
0.0
 40
1.5
  1
C7: 288.6mp
 72
1
 11
390661.022
 21
585774.927
 31
0.0
100
AcDbText
 73
2
  0
LWPOLYLINE
  5
44
330
17
100
AcDbEntity
  8
CONSTRUCTII
 62
1
100
AcDbPolyline
 90
5
 70
1
 10
390529.997
 20
585716.052
 10
390529.997
 20
585780.252
 10
390538.847
 20
585780.252
 10
390538.847
 20
585716.052
 10
390529.997
 20
585716.052
  0
TEXT
  5
45
330
17
100
AcDbEntity
  8
TEXTE
 62
7
100
AcDbText
 10
390534.422
 20
585748.152
 30
0.0
 40
1.5
  1
C8: 568.2mp
 72
1
 11
390534.422
 21
585748.152
 31
0.0
100
AcDbText
 73
2
  0
LWPOLYLINE
  5
46
330
17
100
AcDbEntity
  8
CONSTRUCTII
 62
1
100
AcDbPolyline
 90
5
 70
1
 10
390759.497
 20
585763.152
 10
390759.497
 20
585778.302
 10
390769.097
 20
585778.302
 10
390769.097
 20
585763.152
 10
390759.497
 20
585763.152
  0
TEXT
  5
47
330
17
100
AcDbEntity
  8
TEXTE
 62
7
100
AcDbText
 10
390764.297
 20
585770.727
 30
0.0
 40
1.5
  1
C9: 145.4mp
 72
1
 11
390764.297
 21
585770.727
 31
0.0
100
AcDbText
 73
2
  0
LWPOLYLINE
  5
48
330
17
100
AcDbEntity
  8
CONSTRUCTII
 62
1
100
AcDbPolyline
 90
5
 70
1
 10
390678.047
 20
585751.152
 10
390678.047
 20
585772.302
 10
390690.047
 20
585772.302
 10
390690.047
 20
585751.152
 10
390678.047
 20
585751.152
  0
TEXT
  5
49
330
17
100
AcDbEntity
  8
TEXTE
 62
7
100
AcDbText
 10
390684.047
 20
585761.727
 30
0.0
 40
1.5
  1
C10: 253.8mp
 72
1
 11
390684.047
 21
585761.727
 31
0.0
100
AcDbText
 73
2
  0
LWPOLYLINE
  5
4A
330
17
100
AcDbEntity
  8
CONSTRUCTII
 62
1
100
AcDbPolyline
 90
5
 70
1
 10
390580.247
 20
585729.102
 10
390580.247
 20
585766.302
 10
390600.047
 20
585766.302
 10
390600.047
 20
585729.102
 10
390580.247
 20
585729.102
  0
TEXT
  5
4B
330
17
100
AcDbEntity
  8
TEXTE
 62
7
100
AcDbText
 10
390590.147
 20
585747.702
 30
0.0
 40
1.5
  1
C11: 736.6mp
 72
1
 11
390590.147
 21
585747.702
 31
0.0
100
AcDbText
 73
2
  0
LWPOLYLINE
  5
4C
330
17
100
AcDbEntity
  8
CONSTRUCTII
 62
1
100
AcDbPolyline
 90
5
 70
1
 10
390761.597
 20
585751.152
 10
390761.597
 20
585764.802
 10
390770.147
 20
585764.802
 10
390770.147
 20
585751.152
 10
390761.597
 20
585751.152
  0
TEXT
  5
4D
330
17
100
AcDbEntity
  8
TEXTE
 62
7
100
AcDbText
 10
390765.872
 20
585757.977
 30
0.0
 40
1.5
  1
C12: 116.7mp
 72
1
 11
390765.872
 21
585757.977
 31
0.0
100
AcDbText
 73
2
  0
LWPOLYLINE
  5
4E
330
17
100
AcDbEntity
  8
CONSTRUCTII
 62
1
100
AcDbPolyline
 90
18
 70
1
 10
390779.447
 20
585703.002
 10
390780.347
 20
585717.852
 10
390797.297
 20
585720.102
 10
390796.697
 20
585730.902
 10
390803.597
 20
585730.752
 10
390806.747
 20
585740.952
 10
390814.997
 20
585746.352
 10
390825.347
 20
585738.252
 10
390846.497
 20
585756.402
 10
390847.397
 20
585747.552
 10
390842.447
 20
585746.502
 10
390841.247
 20
585736.152
 10
390843.797
 20
585729.852
 10
390840.197
 20
585727.752
 10
390840.197
 20
585725.052
 10
390846.197
 20
585725.502
 10
390846.197
 20
585721.602
 10
390779.447
 20
585703.002
  0
TEXT
  5
4F
330
17
100
AcDbEntity
  8
TEXTE
 62
7
100
AcDbText
 10
390816.015
 20
585726.315
 30
0.0
 40
1.5
  1
C13: 1515.7mp
 72
1
 11
390816.015
 21
585726.315
 31
0.0
100
AcDbText
 73
2
  0
LWPOLYLINE
  5
50
330
17
100
AcDbEntity
  8
CONSTRUCTII
 62
1
100
AcDbPolyline
 90
5
 70
1
 10
390859.005
 20
585723.641
 10
390850.926
 20
585752.927
 10
390870.205
 20
585758.246
 10
390878.284
 20
585728.959
 10
390859.005
 20
585723.641
  0
TEXT
  5
51
330
17
100
AcDbEntity
  8
TEXTE
 62
7
100
AcDbText
 10
390864.605
 20
585740.943
 30
0.0
 40
1.5
  1
C14: 607.6mp
 72
1
 11
390864.605
 21
585740.943
 31
0.0
100
AcDbText
 73
2
  0
LWPOLYLINE
  5
52
330
17
100
AcDbEntity
  8
CONSTRUCTII
 62
1
100
AcDbPolyline
 90
5
 70
1
 10
390675.347
 20
585739.302
 10
390690.047
 20
585739.302
 10
390690.047
 20
585729.102
 10
390675.347
 20
585729.102
 10
390675.347
 20
585739.302
  0
TEXT
  5
53
330
17
100
AcDbEntity
  8
TEXTE
 62
7
100
AcDbText
 10
390682.697
 20
585734.202
 30
0.0
 40
1.5
  1
C15: 149.9mp
 72
1
 11
390682.697
 21
585734.202
 31
0.0
100
AcDbText
 73
2
  0
LWPOLYLINE
  5
54
330
17
100
AcDbEntity
  8
CONSTRUCTII
 62
1
100
AcDbPolyline
 90
5
 70
1
 10
390744.947
 20
585713.052
 10
390744.947
 20
585724.602
 10
390757.697
 20
585724.602
 10
390757.697
 20
585713.052
 10
390744.947
 20
585713.052
  0
TEXT
  5
55
330
17
100
AcDbEntity
  8
TEXTE
 62
7
100
AcDbText
 10
390751.322
 20
585718.827
 30
0.0
 40
1.5
  1
C16: 147.3mp
 72
1
 11
390751.322
 21
585718.827
 31
0.0
100
AcDbText
 73
2
  0
LWPOLYLINE
  5
56
330
17
100
AcDbEntity
  8
CONSTRUCTII
 62
1
100
AcDbPolyline
 90
5
 70
1
 10
390580.936
 20
585640.182
 10
390582.932
 20
585723.974
 10
390616.498
 20
585723.175
 10
390614.503
 20
585639.383
 10
390580.936
 20
585640.182
  0
TEXT
  5
57
330
17
100
AcDbEntity
  8
TEXTE
 62
7
100
AcDbText
 10
390598.717
 20
585681.678
 30
0.0
 40
1.5
  1
C17: 2814.2mp
 72
1
 11
390598.717
 21
585681.678
 31
0.0
100
AcDbText
 73
2
  0
LWPOLYLINE
  5
58
330
17
100
AcDbEntity
  8
CONSTRUCTII
 62
1
100
AcDbPolyline
 90
14
 70
1
 10
390672.947
 20
585687.852
 10
390673.097
 20
585713.652
 10
390679.247
 20
585723.102
 10
390693.347
 20
585728.202
 10
390699.497
 20
585726.852
 10
390704.147
 20
585714.102
 10
390704.147
 20
585696.552
 10
390691.697
 20
585692.052
 10
390693.047
 20
585676.602
 10
390684.497
 20
585676.302
 10
390683.747
 20
585688.002
 10
390677.447
 20
585686.502
 10
390676.397
 20
585680.802
 10
390672.947
 20
585687.852
  0
TEXT
  5
59
330
17
100
AcDbEntity
  8
TEXTE
 62
7
100
AcDbText
 10
390688.02
 20
585704.712
 30
0.0
 40
1.5
  1
C18: 1155.4mp
 72
1
 11
390688.02
 21
585704.712
 31
0.0
100
AcDbText
 73
2
  0
LWPOLYLINE
  5
5A
330
17
100
AcDbEntity
  8
CONSTRUCTII
 62
1
100
AcDbPolyline
 90
5
 70
1
 10
390721.855
 20
585684.217
 10
390714.241
 20
585714.676
 10
390725.394
 20
585717.464
 10
390733.008
 20
585687.005
 10
390721.855
 20
585684.217
  0
TEXT
  5
5B
330
17
100
AcDbEntity
  8
TEXTE
 62
7
100
AcDbText
 10
390723.624
 20
585700.84
 30
0.0
 40
1.5
  1
C19: 360.9mp
 72
1
 11
390723.624
 21
585700.84
 31
0.0
100
AcDbText
 73
2
  0
LWPOLYLINE
  5
5C
330
17
100
AcDbEntity
  8
CONSTRUCTII
 62
1
100
AcDbPolyline
 90
5
 70
1
 10
390529.997
 20
585679.152
 10
390529.997
 20
585715.302
 10
390571.097
 20
585715.302
 10
390571.097
 20
585679.152
 10
390529.997
 20
585679.152
  0
TEXT
  5
5D
330
17
100
AcDbEntity
  8
TEXTE
 62
7
100
AcDbText
 10
390550.547
 20
585697.227
 30
0.0
 40
1.5
  1
C20: 1485.8mp
 72
1
 11
390550.547
 21
585697.227
 31
0.0
100
AcDbText
 73
2
  0
LWPOLYLINE
  5
5E
330
17
100
AcDbEntity
  8
CONSTRUCTII
 62
1
100
AcDbPolyline
 90
5
 70
1
 10
390750.2
 20
585692.48
 10
390748.149
 20
585705.814
 10
390757.538
 20
585707.258
 10
390759.589
 20
585693.924
 10
390750.2
 20
585692.48
  0
TEXT
  5
5F
330
17
100
AcDbEntity
  8
TEXTE
 62
7
100
AcDbText
 10
390753.869
 20
585699.869
 30
0.0
 40
1.5
  1
C21: 128.2mp
 72
1
 11
390753.869
 21
585699.869
 31
0.0
100
AcDbText
 73
2
  0
LWPOLYLINE
  5
60
330
17
100
AcDbEntity
  8
CONSTRUCTII
 62
1
100
AcDbPolyline
 90
5
 70
1
 10
390617.361
 20
585662.364
 10
390621.697
 20
585708.427
 10
390649.99
 20
585705.765
 10
390645.655
 20
585659.701
 10
390617.361
 20
585662.364
  0
TEXT
  5
61
330
17
100
AcDbEntity
  8
TEXTE
 62
7
100
AcDbText
 10
390633.676
 20
585684.064
 30
0.0
 40
1.5
  1
C22: 1314.8mp
 72
1
 11
390633.676
 21
585684.064
 31
0.0
100
AcDbText
 73
2
  0
LWPOLYLINE
  5
62
330
17
100
AcDbEntity
  8
CONSTRUCTII
 62
1
100
AcDbPolyline
 90
5
 70
1
 10
390882.883
 20
585689.394
 10
390846.827
 20
585677.846
 10
390841.769
 20
585693.639
 10
390877.825
 20
585705.187
 10
390882.883
 20
585689.394
  0
TEXT
  5
63
330
17
100
AcDbEntity
  8
TEXTE
 62
7
100
AcDbText
 10
390862.326
 20
585691.516
 30
0.0
 40
1.5
  1
C23: 627.9mp
 72
1
 11
390862.326
 21
585691.516
 31
0.0
100
AcDbText
 73
2
  0
LWPOLYLINE
  5
64
330
17
100
AcDbEntity
  8
CONSTRUCTII
 62
1
100
AcDbPolyline
 90
5
 70
1
 10
390585.047
 20
585632.352
 10
390549.347
 20
585632.352
 10
390549.347
 20
585693.402
 10
390585.047
 20
585693.402
 10
390585.047
 20
585632.352
  0
TEXT
  5
65
330
17
100
AcDbEntity
  8
TEXTE
 62
7
100
AcDbText
 10
390567.197
 20
585662.877
 30
0.0
 40
1.5
  1
C24: 2179.5mp
 72
1
 11
390567.197
 21
585662.877
 31
0.0
100
AcDbText
 73
2
  0
LWPOLYLINE
  5
66
330
17
100
AcDbEntity
  8
CONSTRUCTII
 62
1
100
AcDbPolyline
 90
13
 70
1
 10
390809.597
 20
585683.052
 10
390819.047
 20
585686.802
 10
390821.447
 20
585681.252
 10
390827.897
 20
585684.102
 10
390833.897
 20
585682.302
 10
390833.597
 20
585674.052
 10
390826.847
 20
585671.802
 10
390829.397
 20
585663.852
 10
390828.497
 20
585658.902
 10
390822.797
 20
585657.402
 10
390817.697
 20
585666.102
 10
390814.997
 20
585667.152
 10
390809.597
 20
585683.052
  0
TEXT
  5
67
330
17
100
AcDbEntity
  8
TEXTE
 62
7
100
AcDbText
 10
390822.169
 20
585673.8
 30
0.0
 40
1.5
  1
C25: 406.9mp
 72
1
 11
390822.169
 21
585673.8
 31
0.0
100
AcDbText
 73
2
  0
LWPOLYLINE
  5
68
330
17
100
AcDbEntity
  8
CONSTRUCTII
 62
1
100
AcDbPolyline
 90
5
 70
1
 10
390871.997
 20
585656.052
 10
390871.997
 20
585681.252
 10
390877.997
 20
585681.252
 10
390877.997
 20
585656.052
 10
390871.997
 20
585656.052
  0
TEXT
  5
69
330
17
100
AcDbEntity
  8
TEXTE
 62
7
100
AcDbText
 10
390874.997
 20
585668.652
 30
0.0
 40
1.5
  1
C26: 151.2mp
 72
1
 11
390874.997
 21
585668.652
 31
0.0
100
AcDbText
 73
2
  0
LWPOLYLINE
  5
6A
330
17
100
AcDbEntity
  8
CONSTRUCTII
 62
1
100
AcDbPolyline
 90
5
 70
1
 10
390529.997
 20
585655.152
 10
390529.997
 20
585684.252
 10
390542.147
 20
585684.252
 10
390542.147
 20
585655.152
 10
390529.997
 20
585655.152
  0
TEXT
  5
6B
330
17
100
AcDbEntity
  8
TEXTE
 62
7
100
AcDbText
 10
390536.072
 20
585669.702
 30
0.0
 40
1.5
  1
C27: 353.6mp
 72
1
 11
390536.072
 21
585669.702
 31
0.0
100
AcDbText
 73
2
  0
LWPOLYLINE
  5
6C
330
17
100
AcDbEntity
  8
CONSTRUCTII
 62
1
100
AcDbPolyline
 90
5
 70
1
 10
390798.267
 20
585683.129
 10
390810.814
 20
585652.459
 10
390802.847
 20
585649.2
 10
390790.301
 20
585679.87
 10
390798.267
 20
585683.129
  0
TEXT
  5
6D
330
17
100
AcDbEntity
  8
TEXTE
 62
7
100
AcDbText
 10
390800.557
 20
585666.165
 30
0.0
 40
1.5
  1
C28: 285.2mp
 72
1
 11
390800.557
 21
585666.165
 31
0.0
100
AcDbText
 73
2
  0
LWPOLYLINE
  5
6E
330
17
100
AcDbEntity
  8
CONSTRUCTII
 62
1
100
AcDbPolyline
 90
5
 70
1
 10
390783.495
 20
585658.006
 10
390776.654
 20
585677.906
 10
390783.454
 20
585680.244
 10
390790.295
 20
585660.344
 10
390783.495
 20
585658.006
  0
TEXT
  5
6F
330
17
100
AcDbEntity
  8
TEXTE
 62
7
100
AcDbText
 10
390783.475
 20
585669.125
 30
0.0
 40
1.5
  1
C29: 151.3mp
 72
1
 11
390783.475
 21
585669.125
 31
0.0
100
AcDbText
 73
2
  0
LWPOLYLINE
  5
70
330
17
100
AcDbEntity
  8
CONSTRUCTII
 62
1
100
AcDbPolyline
 90
5
 70
1
 10
390849.842
 20
585673.696
 10
390862.977
 20
585676.614
 10
390865.112
 20
585667.006
 10
390851.978
 20
585664.087
 10
390849.842
 20
585673.696
  0
TEXT
  5
71
330
17
100
AcDbEntity
  8
TEXTE
 62
7
100
AcDbText
 10
390857.477
 20
585670.351
 30
0.0
 40
1.5
  1
C30: 132.4mp
 72
1
 11
390857.477
 21
585670.351
 31
0.0
100
AcDbText
 73
2
  0
LWPOLYLINE
  5
72
330
17
100
AcDbEntity
  8
CONSTRUCTII
 62
1
100
AcDbPolyline
 90
5
 70
1
 10
390756.903
 20
585652.178
 10
390750.931
 20
585669.78
 10
390766.679
 20
585675.123
 10
390772.651
 20
585657.521
 10
390756.903
 20
585652.178
  0
TEXT
  5
73
330
17
100
AcDbEntity
  8
TEXTE
 62
7
100
AcDbText
 10
390761.791
 20
585663.65
 30
0.0
 40
1.5
  1
C31: 309.1mp
 72
1
 11
390761.791
 21
585663.65
 31
0.0
100
AcDbText
 73
2
  0
LWPOLYLINE
  5
74
330
17
100
AcDbEntity
  8
CONSTRUCTII
 62
1
100
AcDbPolyline
 90
5
 70
1
 10
390847.501
 20
585660.513
 10
390833.282
 20
585656.036
 10
390829.725
 20
585667.336
 10
390843.943
 20
585671.812
 10
390847.501
 20
585660.513
  0
TEXT
  5
75
330
17
100
AcDbEntity
  8
TEXTE
 62
7
100
AcDbText
 10
390838.613
 20
585663.924
 30
0.0
 40
1.5
  1
C32: 176.6mp
 72
1
 11
390838.613
 21
585663.924
 31
0.0
100
AcDbText
 73
2
  0
LWPOLYLINE
  5
76
330
17
100
AcDbEntity
  8
CONSTRUCTII
 62
1
100
AcDbPolyline
 90
16
 70
1
 10
390730.547
 20
585633.402
 10
390723.347
 20
585658.602
 10
390725.147
 20
585659.052
 10
390727.847
 20
585646.002
 10
390734.897
 20
585647.052
 10
390730.997
 20
585662.052
 10
390744.197
 20
585667.002
 10
390749.447
 20
585659.052
 10
390754.397
 20
585642.102
 10
390754.247
 20
585634.452
 10
390751.397
 20
585633.852
 10
390745.697
 20
585640.752
 10
390742.247
 20
585641.052
 10
390737.597
 20
585638.952
 10
390735.947
 20
585633.702
 10
390730.547
 20
585633.402
  0
TEXT
  5
77
330
17
100
AcDbEntity
  8
TEXTE
 62
7
100
AcDbText
 10
390740.836
 20
585649.379
 30
0.0
 40
1.5
  1
C33: 580.8mp
 72
1
 11
390740.836
 21
585649.379
 31
0.0
100
AcDbText
 73
2
  0
LWPOLYLINE
  5
78
330
17
100
AcDbEntity
  8
CONSTRUCTII
 62
1
100
AcDbPolyline
 90
5
 70
1
 10
390857.128
 20
585655.357
 10
390873.629
 20
585661.686
 10
390880.738
 20
585643.15
 10
390864.237
 20
585636.821
 10
390857.128
 20
585655.357
  0
TEXT
  5
79
330
17
100
AcDbEntity
  8
TEXTE
 62
7
100
AcDbText
 10
390868.933
 20
585649.253
 30
0.0
 40
1.5
  1
C34: 350.9mp
 72
1
 11
390868.933
 21
585649.253
 31
0.0
100
AcDbText
 73
2
  0
LWPOLYLINE
  5
7A
330
17
100
AcDbEntity
  8
CONSTRUCTII
 62
1
100
AcDbPolyline
 90
11
 70
1
 10
390702.197
 20
585656.202
 10
390706.247
 20
585659.052
 10
390708.947
 20
585657.252
 10
390709.997
 20
585652.302
 10
390717.797
 20
585653.802
 10
390713.897
 20
585651.702
 10
390716.897
 20
585645.252
 10
390712.547
 20
585643.452
 10
390712.697
 20
585638.502
 10
390705.647
 20
585639.402
 10
390702.197
 20
585656.202
  0
TEXT
  5
7B
330
17
100
AcDbEntity
  8
TEXTE
 62
7
100
AcDbText
 10
390708.819
 20
585648.341
 30
0.0
 40
1.5
  1
C35: 175.1mp
 72
1
 11
390708.819
 21
585648.341
 31
0.0
100
AcDbText
 73
2
  0
LWPOLYLINE
  5
7C
330
17
100
AcDbEntity
  8
CONSTRUCTII
 62
1
100
AcDbPolyline
 90
16
 70
1
 10
390677.147
 20
585617.652
 10
390681.497
 20
585623.952
 10
390679.847
 20
585634.002
 10
390692.597
 20
585632.952
 10
390692.147
 20
585640.002
 10
390697.547
 20
585640.452
 10
390700.697
 20
585646.002
 10
390702.497
 20
585634.752
 10
390698.747
 20
585631.302
 10
390699.197
 20
585624.552
 10
390706.097
 20
585624.102
 10
390708.347
 20
585616.902
 10
390704.147
 20
585613.452
 10
390704.447
 20
585605.952
 10
390685.547
 20
585598.602
 10
390677.147
 20
585617.652
  0
TEXT
  5
7D
330
17
100
AcDbEntity
  8
TEXTE
 62
7
100
AcDbText
 10
390692.398
 20
585619.227
 30
0.0
 40
1.5
  1
C36: 809.7mp
 72
1
 11
390692.398
 21
585619.227
 31
0.0
100
AcDbText
 73
2
  0
LWPOLYLINE
  5
7E
330
17
100
AcDbEntity
  8
CONSTRUCTII
 62
1
100
AcDbPolyline
 90
5
 70
1
 10
390770.665
 20
585653.765
 10
390775.929
 20
585638.592
 10
390763.772
 20
585634.374
 10
390758.508
 20
585649.547
 10
390770.665
 20
585653.765
  0
TEXT
  5
7F
330
17
100
AcDbEntity
  8
TEXTE
 62
7
100
AcDbText
 10
390767.219
 20
585644.069
 30
0.0
 40
1.5
  1
C37: 206.6mp
 72
1
 11
390767.219
 21
585644.069
 31
0.0
100
AcDbText
 73
2
  0
LWPOLYLINE
  5
80
330
17
100
AcDbEntity
  8
CONSTRUCTII
 62
1
100
AcDbPolyline
 90
5
 70
1
 10
390531.947
 20
585638.052
 10
390531.947
 20
585652.302
 10
390543.047
 20
585652.302
 10
390543.047
 20
585638.052
 10
390531.947
 20
585638.052
  0
TEXT
  5
81
330
17
100
AcDbEntity
  8
TEXTE
 62
7
100
AcDbText
 10
390537.497
 20
585645.177
 30
0.0
 40
1.5
  1
C38: 158.2mp
 72
1
 11
390537.497
 21
585645.177
 31
0.0
100
AcDbText
 73
2
  0
LWPOLYLINE
  5
82
330
17
100
AcDbEntity
  8
CONSTRUCTII
 62
1
100
AcDbPolyline
 90
5
 70
1
 10
390529.997
 20
585613.152
 10
390529.997
 20
585641.202
 10
390549.047
 20
585641.202
 10
390549.047
 20
585613.152
 10
390529.997
 20
585613.152
  0
TEXT
  5
83
330
17
100
AcDbEntity
  8
TEXTE
 62
7
100
AcDbText
 10
390539.522
 20
585627.177
 30
0.0
 40
1.5
  1
C39: 534.4mp
 72
1
 11
390539.522
 21
585627.177
 31
0.0
100
AcDbText
 73
2
  0
LWPOLYLINE
  5
84
330
17
100
AcDbEntity
  8
CONSTRUCTII
 62
1
100
AcDbPolyline
 90
5
 70
1
 10
390780.647
 20
585640.002
 10
390785.432
 20
585625.647
 10
390774.902
 20
585622.137
 10
390770.117
 20
585636.492
 10
390780.647
 20
585640.002
  0
TEXT
  5
85
330
17
100
AcDbEntity
  8
TEXTE
 62
7
100
AcDbText
 10
390777.774
 20
585631.07
 30
0.0
 40
1.5
  1
C40: 167.9mp
 72
1
 11
390777.774
 21
585631.07
 31
0.0
100
AcDbText
 73
2
  0
LWPOLYLINE
  5
86
330
17
100
AcDbEntity
  8
CONSTRUCTII
 62
1
100
AcDbPolyline
 90
5
 70
1
 10
390727.238
 20
585636.813
 10
390732.947
 20
585618.418
 10
390720.708
 20
585614.62
 10
390714.999
 20
585633.015
 10
390727.238
 20
585636.813
  0
TEXT
  5
87
330
17
100
AcDbEntity
  8
TEXTE
 62
7
100
AcDbText
 10
390723.973
 20
585625.716
 30
0.0
 40
1.5
  1
C41: 246.8mp
 72
1
 11
390723.973
 21
585625.716
 31
0.0
100
AcDbText
 73
2
  0
LWPOLYLINE
  5
88
330
17
100
AcDbEntity
  8
CONSTRUCTII
 62
1
100
AcDbPolyline
 90
8
 70
1
 10
390755.747
 20
585628.752
 10
390765.947
 20
585632.502
 10
390771.647
 20
585625.602
 10
390772.847
 20
585616.902
 10
390766.247
 20
585615.102
 10
390762.197
 20
585624.852
 10
390757.547
 20
585624.702
 10
390755.747
 20
585628.752
  0
TEXT
  5
89
330
17
100
AcDbEntity
  8
TEXTE
 62
7
100
AcDbText
 10
390765.728
 20
585624.34
 30
0.0
 40
1.5
  1
C42: 153.7mp
 72
1
 11
390765.728
 21
585624.34
 31
0.0
100
AcDbText
 73
2
  0
LWPOLYLINE
  5
8A
330
17
100
AcDbEntity
  8
CONSTRUCTII
 62
1
100
AcDbPolyline
 90
10
 70
1
 10
390652.097
 20
585630.252
 10
390654.047
 20
585632.652
 10
390660.647
 20
585633.852
 10
390669.047
 20
585610.452
 10
390675.047
 20
585610.152
 10
390676.397
 20
585604.002
 10
390673.847
 20
585600.852
 10
390664.847
 20
585597.702
 10
390661.997
 20
585599.502
 10
390652.097
 20
585630.252
  0
TEXT
  5
8B
330
17
100
AcDbEntity
  8
TEXTE
 62
7
100
AcDbText
 10
390663.29
 20
585614.466
 30
0.0
 40
1.5
  1
C43: 395.3mp
 72
1
 11
390663.29
 21
585614.466
 31
0.0
100
AcDbText
 73
2
  0
LWPOLYLINE
  5
8C
330
17
100
AcDbEntity
  8
CONSTRUCTII
 62
1
100
AcDbPolyline
 90
5
 70
1
 10
390757.741
 20
585571.289
 10
390723.159
 20
585557.334
 10
390708.47
 20
585593.736
 10
390743.053
 20
585607.691
 10
390757.741
 20
585571.289
  0
TEXT
  5
8D
330
17
100
AcDbEntity
  8
TEXTE
 62
7
100
AcDbText
 10
390733.106
 20
585582.512
 30
0.0
 40
1.5
  1
C44: 1463.8mp
 72
1
 11
390733.106
 21
585582.512
 31
0.0
100
AcDbText
 73
2
  0
LWPOLYLINE
  5
8E
330
17
100
AcDbEntity
  8
CONSTRUCTII
 62
1
100
AcDbPolyline
 90
17
 70
1
 10
390568.847
 20
585577.602
 10
390583.997
 20
585583.902
 10
390590.747
 20
585592.602
 10
390628.547
 20
585604.902
 10
390632.897
 20
585602.952
 10
390637.397
 20
585589.602
 10
390627.347
 20
585585.252
 10
390624.197
 20
585589.752
 10
390620.297
 20
585589.452
 10
390584.147
 20
585571.152
 10
390592.097
 20
585551.952
 10
390597.497
 20
585552.102
 10
390601.847
 20
585542.052
 10
390590.747
 20
585536.952
 10
390586.397
 20
585536.952
 10
390582.047
 20
585542.352
 10
390568.847
 20
585577.602
  0
TEXT
  5
8F
330
17
100
AcDbEntity
  8
TEXTE
 62
7
100
AcDbText
 10
390598.048
 20
585575.785
 30
0.0
 40
1.5
  1
C45: 1442.3mp
 72
1
 11
390598.048
 21
585575.785
 31
0.0
100
AcDbText
 73
2
  0
LWPOLYLINE
  5
90
330
17
100
AcDbEntity
  8
CONSTRUCTII
 62
1
100
AcDbPolyline
 90
11
 70
1
 10
390647.297
 20
585574.002
 10
390684.947
 20
585590.052
 10
390690.347
 20
585586.152
 10
390696.797
 20
585587.502
 10
390711.197
 20
585554.202
 10
390712.097
 20
585540.252
 10
390696.197
 20
585536.952
 10
390696.047
 20
585547.302
 10
390684.797
 20
585576.102
 10
390654.497
 20
585557.952
 10
390647.297
 20
585574.002
  0
TEXT
  5
91
330
17
100
AcDbEntity
  8
TEXTE
 62
7
100
AcDbText
 10
390685.218
 20
585567.421
 30
0.0
 40
1.5
  1
C46: 1366.7mp
 72
1
 11
390685.218
 21
585567.421
 31
0.0
100
AcDbText
 73
2
  0
LWPOLYLINE
  5
92
330
17
100
AcDbEntity
  8
CONSTRUCTII
 62
1
100
AcDbPolyline
 90
5
 70
1
 10
390610.654
 20
585551.351
 10
390605.422
 20
585564.605
 10
390619.581
 20
585570.195
 10
390624.813
 20
585556.94
 10
390610.654
 20
585551.351
  0
TEXT
  5
93
330
17
100
AcDbEntity
  8
TEXTE
 62
7
100
AcDbText
 10
390615.117
 20
585560.773
 30
0.0
 40
1.5
  1
C47: 216.9mp
 72
1
 11
390615.117
 21
585560.773
 31
0.0
100
AcDbText
 73
2
  0
LWPOLYLINE
  5
94
330
17
100
AcDbEntity
  8
CONSTRUCTII
 62
1
100
AcDbPolyline
 90
5
 70
1
 10
390529.997
 20
585536.952
 10
390529.997
 20
585563.202
 10
390538.097
 20
585563.202
 10
390538.097
 20
585536.952
 10
390529.997
 20
585536.952
  0
TEXT
  5
95
330
17
100
AcDbEntity
  8
TEXTE
 62
7
100
AcDbText
 10
390534.047
 20
585550.077
 30
0.0
 40
1.5
  1
C48: 212.6mp
 72
1
 11
390534.047
 21
585550.077
 31
0.0
100
AcDbText
 73
2
  0
LWPOLYLINE
  5
96
330
17
100
AcDbEntity
  8
CONSTRUCTII
 62
1
100
AcDbPolyline
 90
5
 70
1
 10
390612.347
 20
585536.952
 10
390612.347
 20
585553.752
 10
390655.247
 20
585553.752
 10
390655.247
 20
585536.952
 10
390612.347
 20
585536.952
  0
TEXT
  5
97
330
17
100
AcDbEntity
  8
TEXTE
 62
7
100
AcDbText
 10
390633.797
 20
585545.352
 30
0.0
 40
1.5
  1
C49: 720.7mp
 72
1
 11
390633.797
 21
585545.352
 31
0.0
100
AcDbText
 73
2
  0
ENDSEC
  0
SECTION
  2
OBJECTS
  0
DICTIONARY
  5
A
330
0
100
AcDbDictionary
281
1
  3
ACAD_COLOR
350
B
  3
ACAD_GROUP
350
C
  3
ACAD_LAYOUT
350
D
  3
ACAD_MATERIAL
350
E
  3
ACAD_MLEADERSTYLE
350
F
  3
ACAD_MLINESTYLE
350
10
  3
ACAD_PLOTSETTINGS
350
11
  3
ACAD_PLOTSTYLENAME
350
12
  3
ACAD_SCALELIST
350
14
  3
ACAD_TABLESTYLE
350
15
  3
ACAD_VISUALSTYLE
350
16
  3
EZDXF_META
350
2D
  0
DICTIONARY
  5
B
330
A
100
AcDbDictionary
281
1
  0
DICTIONARY
  5
C
330
A
100
AcDbDictionary
281
1
  0
DICTIONARY
  5
D
330
A
100
AcDbDictionary
281
1
  3
Model
350
1A
  3
Layout1
350
1E
  0
DICTIONARY
  5
E
330
A
100
AcDbDictionary
281
1
  3
ByBlock
350
1F
  3
ByLayer
350
20
  3
Global
350
21
  0
DICTIONARY
  5
F
330
A
100
AcDbDictionary
281
1
  3
Standard
350
2C
  0
DICTIONARY
  5
10
330
A
100
AcDbDictionary
281
1
  3
Standard
350
22
  0
DICTIONARY
  5
11
330
A
100
AcDbDictionary
281
1
  0
ACDBDICTIONARYWDFLT
  5
12
330
A
100
AcDbDictionary
281
1
  3
Normal
350
13
100
AcDbDictionaryWithDefault
340
13
  0
ACDBPLACEHOLDER
  5
13
330
12
  0
DICTIONARY
  5
14
330
A
100
AcDbDictionary
281
1
  0
DICTIONARY
  5
15
330
A
100
AcDbDictionary
281
1
  0
DICTIONARY
  5
16
330
A
100
AcDbDictionary
281
1
  0
LAYOUT
  5
1A
330
D
100
AcDbPlotSettings
  1

  4
A3
  6

 40
7.5
 41
20.0
 42
7.5
 43
20.0
 44
420.0
 45
297.0
 46
0.0
 47
0.0
 48
0.0
 49
0.0
140
0.0
141
0.0
142
1.0
143
1.0
 70
1024
 72
1
 73
0
 74
5
  7

 75
16
 76
0
 77
2
 78
300
147
1.0
148
0.0
149
0.0
100
AcDbLayout
  1
Model
 70
1
 71
0
 10
0.0
 20
0.0
 11
420.0
 21
297.0
 12
0.0
 22
0.0
 32
0.0
 14
1e+20
 24
1e+20
 34
1e+20
 15
-1e+20
 25
-1e+20
 35
-1e+20
146
0.0
 13
0.0
 23
0.0
 33
0.0
 16
1.0
 26
0.0
 36
0.0
 17
0.0
 27
1.0
 37
0.0
 76
1
330
17
  0
LAYOUT
  5
1E
330
D
100
AcDbPlotSettings
  1

  4
A3
  6

 40
7.5
 41
20.0
 42
7.5
 43
20.0
 44
420.0
 45
297.0
 46
0.0
 47
0.0
 48
0.0
 49
0.0
140
0.0
141
0.0
142
1.0
143
1.0
 70
0
 72
1
 73
0
 74
5
  7

 75
16
 76
0
 77
2
 78
300
147
1.0
148
0.0
149
0.0
100
AcDbLayout
  1
Layout1
 70
1
 71
1
 10
0.0
 20
0.0
 11
420.0
 21
297.0
 12
0.0
 22
0.0
 32
0.0
 14
1e+20
 24
1e+20
 34
1e+20
 15
-1e+20
 25
-1e+20
 35
-1e+20
146
0.0
 13
0.0
 23
0.0
 33
0.0
 16
1.0
 26
0.0
 36
0.0
 17
0.0
 27
1.0
 37
0.0
 76
1
330
1B
  0
MATERIAL
  5
1F
102
{ACAD_REACTORS
330
E
102
}
330
E
100
AcDbMaterial
  1
ByBlock
  2

 70
0
 40
1.0
 71
1
 41
1.0
 91
-1023410177
 42
1.0
 72
1
  3

 73
1
 74
1
 75
1
 44
0.5
 73
0
 45
1.0
 46
1.0
 77
1
  4

 78
1
 79
1
170
1
 48
1.0
171
1
  6

172
1
173
1
174
1
140
1.0
141
1.0
175
1
  7

176
1
177
1
178
1
143
1.0
179
1
  8

270
1
271
1
272
1
145
1.0
146
1.0
273
1
  9

274
1
275
1
276
1
 42
1.0
 72
1
  3

 73
1
 74
1
 75
1
 94
63
  0
MATERIAL
  5
20
102
{ACAD_REACTORS
330
E
102
}
330
E
100
AcDbMaterial
  1
ByLayer
  2

 70
0
 40
1.0
 71
1
 41
1.0
 91
-1023410177
 42
1.0
 72
1
  3

 73
1
 74
1
 75
1
 44
0.5
 73
0
 45
1.0
 46
1.0
 77
1
  4

 78
1
 79
1
170
1
 48
1.0
171
1
  6

172
1
173
1
174
1
140
1.0
141
1.0
175
1
  7

176
1
177
1
178
1
143
1.0
179
1
  8

270
1
271
1
272
1
145
1.0
146
1.0
273
1
  9

274
1
275
1
276
1
 42
1.0
 72
1
  3

 73
1
 74
1
 75
1
 94
63
  0
MATERIAL
  5
21
102
{ACAD_REACTORS
330
E
102
}
330
E
100
AcDbMaterial
  1
Global
  2

 70
0
 40
1.0
 71
1
 41
1.0
 91
-1023410177
 42
1.0
 72
1
  3

 73
1
 74
1
 75
1
 44
0.5
 73
0
 45
1.0
 46
1.0
 77
1
  4

 78
1
 79
1
170
1
 48
1.0
171
1
  6

172
1
173
1
174
1
140
1.0
141
1.0
175
1
  7

176
1
177
1
178
1
143
1.0
179
1
  8

270
1
271
1
272
1
145
1.0
146
1.0
273
1
  9

274
1
275
1
276
1
 42
1.0
 72
1
  3

 73
1
 74
1
 75
1
 94
63
  0
MLINESTYLE
  5
22
102
{ACAD_REACTORS
330
10
102
}
330
10
100
AcDbMlineStyle
  2
Standard
 70
0
  3

 62
256
 51
90.0
 52
90.0
 71
2
 49
0.5
 62
256
  6
BYLAYER
 49
-0.5
 62
256
  6
BYLAYER
  0
MLEADERSTYLE
  5
2C
102
{ACAD_REACTORS
330
F
102
}
330
F
100
AcDbMLeaderStyle
179
2
170
2
171
1
172
0
 90
2
 40
0.0
 41
0.0
173
1
 91
-1056964608
 92
-2
290
1
 42
2.0
291
1
 43
8.0
  3
Standard
 44
4.0
300

342
29
174
1
175
1
176
0
178
1
 93
-1056964608
 45
4.0
292
0
297
0
 46
4.0
 94
-1056964608
 47
1.0
 49
1.0
140
1.0
294
1
141
0.0
177
0
142
1.0
295
0
296
0
143
3.75
271
0
272
9
273
9
  0
DICTIONARY
  5
2D
330
A
100
AcDbDictionary
280
1
281
1
  3
CREATED_BY_EZDXF
350
2E
  3
WRITTEN_BY_EZDXF
350
9A
  0
DICTIONARYVAR
  5
2E
330
2D
100
DictionaryVariables
280
0
  1
1.4.4 @ 2026-09-05T15:07:24.327893+00:00
  0
DICTIONARYVAR
  5
9A
330
2D
100
DictionaryVariables
280
0
  1
1.4.4 @ 2026-09-05T15:07:24.340687+00:00
  0
ENDSEC
  0
EOF
